<?xml version="1.0" encoding="UTF-8"?>
<svg width="464px" height="463px" viewBox="0 0 464 463" version="1.1" xmlns="http://www.w3.org/2000/svg" xmlns:xlink="http://www.w3.org/1999/xlink">
    <!-- Generator: Sketch 54.1 (76490) - https://sketchapp.com -->
    <title>open-source-contest-dark-new</title>
    <desc>Created with Sketch.</desc>
    <g id="open-source-contest-dark-new" stroke="none" stroke-width="1" fill="none" fill-rule="evenodd">
        <g id="Group-2" transform="translate(0.852645, 0.218759)">
            <g id="Group" transform="translate(0.346823, 0.174015)">
                <circle id="Oval-Copy" stroke="#979797" fill="#CC0000" cx="231.370035" cy="231.370035" r="203.494127"></circle>
                <path d="M229.539354,432.579568 C229.694096,432.584619 229.849165,432.588517 230.005347,432.588517 C340.724358,432.588517 430.801676,342.320408 430.801676,231.365858 C430.801676,120.406819 340.724358,30.1431988 230.005347,30.1431988 C229.849165,30.1431988 229.694096,30.1470972 229.539354,30.1521476 L229.539354,30.1788036 C119.438385,30.9014152 30.0821149,120.855345 30.0821149,231.370045 C30.0821149,341.889233 119.438385,431.838675 229.539354,432.561286 L229.539354,432.579568 Z M229.539354,453.248774 L229.539354,453.324028 C209.363432,453.871597 187.857377,466.55994 169.307173,461.586936 C149.700029,456.335658 137.339197,433.508311 120.163912,423.553326 C102.746784,413.445739 76.8741312,414.033703 62.7442679,399.868719 C48.6009689,385.694759 49.183182,359.770505 39.1064174,342.31113 C29.1684882,325.103099 6.39052162,312.715471 1.1416469,293.056843 C-3.91912822,274.053503 9.485208,251.962233 9.485208,231.370045 C9.485208,210.773369 -3.91912822,188.682098 1.15060402,169.678758 C6.39052162,150.024619 29.1684882,137.641479 39.0974603,120.428959 C49.183182,102.974073 48.6009689,77.0453306 62.7353108,62.880347 C76.8741312,48.7063868 102.742306,49.289862 120.163912,39.191252 C137.339197,29.2317784 149.704507,6.39994315 169.31613,1.15315421 C187.866334,-3.81985019 209.363432,8.86849227 229.539354,9.41157308 L229.539354,9.47955797 C229.697671,9.49468325 229.855987,9.50612818 230.014304,9.50612818 C250.575382,9.50612818 272.614386,-3.93624383 291.572139,1.14896735 C311.183762,6.40473284 323.540115,29.2275915 340.7154,39.1870651 C358.12805,49.2856751 384.005181,48.7021999 398.139523,62.8671836 C412.278343,77.0411438 411.69613,102.960909 421.777373,120.424772 C431.710824,137.637292 454.488791,150.020432 459.742144,169.674571 C464.798441,188.677911 451.389626,210.769182 451.389626,231.365858 C451.389626,251.958046 464.798441,274.049316 459.742144,293.052656 C454.488791,312.711284 431.710824,325.098912 421.777373,342.306944 C411.69613,359.757342 412.278343,385.690572 398.144002,399.864532 C384.005181,414.029516 358.12805,413.441553 340.7154,423.540163 C323.540115,433.504125 311.183762,456.331471 291.56766,461.582749 C272.614386,466.66796 250.566425,453.2211 230.014304,453.2211 C229.855987,453.2211 229.697671,453.233117 229.539354,453.248774 Z" id="Combined-Shape-Copy" fill="#640F09"></path>
            </g>
            <path d="M94.5209317,199.022158 L94.5209317,153.491508 L117.091125,153.491508 C128.733963,153.491508 132.701633,160.321106 132.701633,168.321491 C132.701633,173.329863 129.774663,179.378935 124.636204,181.655467 L133.091896,199.022158 L121.579146,199.022158 L113.448673,183.281562 L104.79785,183.281562 L104.79785,199.022158 L94.5209317,199.022158 Z M104.79785,173.590038 L117.221213,173.590038 C120.863665,173.590038 122.034453,171.118374 122.034453,168.321491 C122.034453,165.71974 120.928708,163.183032 117.221213,163.183032 L104.79785,163.183032 L104.79785,173.590038 Z M140.571931,199.022158 L140.571931,153.491508 L173.809306,153.491508 L173.809306,163.248076 L150.848849,163.248076 L150.848849,170.663067 L163.467344,170.663067 L163.467344,180.419635 L150.848849,180.419635 L150.848849,189.200546 L175.110181,189.200546 L175.110181,199.022158 L140.571931,199.022158 Z M182.264998,153.491508 L199.566644,153.491508 C215.502372,153.491508 221.811619,164.874171 221.811619,176.256833 C221.811619,186.598795 216.022722,199.022158 199.306469,199.022158 L182.264998,199.022158 L182.264998,153.491508 Z M200.282126,189.200546 C208.152424,189.200546 211.144438,182.240861 211.144438,176.256833 C211.144438,170.01263 208.022336,163.248076 200.997608,163.248076 L192.541916,163.248076 L192.541916,189.200546 L200.282126,189.200546 Z M272.675859,199.022158 L272.675859,180.549723 L254.918905,180.549723 L254.918905,199.022158 L244.641987,199.022158 L244.641987,153.491508 L254.918905,153.491508 L254.918905,170.728111 L272.675859,170.728111 L272.675859,153.491508 L283.01782,153.491508 L283.01782,199.022158 L272.675859,199.022158 Z M323.475055,199.022158 L320.092778,190.371334 L303.11635,190.371334 L299.799117,199.022158 L288.546542,199.022158 L306.693758,153.491508 L316.51537,153.491508 L334.72763,199.022158 L323.475055,199.022158 Z M316.645457,180.874942 L312.937962,171.768812 C312.482655,170.663067 311.897261,169.16706 311.572042,168.061316 C311.311867,169.16706 310.661429,170.728111 310.271166,171.768812 L306.563671,180.874942 L316.645457,180.874942 Z M353.915546,163.378164 L353.915546,199.022158 L343.638628,199.022158 L343.638628,163.378164 L330.564827,163.378164 L330.564827,153.491508 L367.054391,153.491508 L367.054391,163.378164 L353.915546,163.378164 Z" id="RED-HAT" fill="#FFFFFF"></path>
            <path d="M107.82889,303.724068 C93.8649186,303.724068 89.1260143,291.908399 89.1260143,280.977327 C89.1260143,270.93085 93.9912894,258.230586 107.82889,258.230586 C116.358918,258.230586 121.982418,263.601344 124.193906,269.098473 L115.284766,273.079153 C113.073278,269.730327 111.177716,267.834765 107.82889,267.834765 C101.510351,267.834765 99.4884184,275.101085 99.4884184,280.977327 C99.4884184,287.043124 101.952649,294.119888 107.82889,294.119888 C110.861789,294.119888 113.136463,291.782029 115.158395,288.433203 L124.257092,291.845214 C121.034637,298.795607 115.979806,303.724068 107.82889,303.724068 Z M148.14117,303.850438 C133.798086,303.850438 128.427328,291.908399 128.427328,280.977327 C128.427328,270.046254 133.798086,258.104215 148.14117,258.104215 C162.421068,258.104215 167.728641,270.046254 167.728641,280.977327 C167.728641,291.908399 162.421068,303.850438 148.14117,303.850438 Z M148.14117,294.183074 C154.902006,294.183074 157.366237,286.727197 157.366237,280.977327 C157.366237,274.911529 155.154748,267.708395 148.14117,267.708395 C141.00122,267.708395 138.789732,275.227456 138.789732,280.977327 C138.789732,286.916754 141.127591,294.183074 148.14117,294.183074 Z M211.895229,303.092214 L203.238831,303.092214 L186.873814,280.471844 C186.431517,279.903175 185.42055,278.070799 184.978253,277.059833 C185.167809,278.19717 185.167809,279.650434 185.167809,280.471844 L185.167809,303.092214 L175.310888,303.092214 L175.310888,258.86244 L184.346399,258.86244 L200.332303,281.293254 C200.711415,281.861922 201.785567,283.631113 202.164679,284.578894 C202.038308,283.757484 201.975123,281.861922 201.975123,281.230068 L201.975123,258.86244 L211.895229,258.86244 L211.895229,303.092214 Z M240.897324,268.466619 L240.897324,303.092214 L230.914032,303.092214 L230.914032,268.466619 L218.213768,268.466619 L218.213768,258.86244 L253.660773,258.86244 L253.660773,268.466619 L240.897324,268.466619 Z M259.979312,303.092214 L259.979312,258.86244 L292.267047,258.86244 L292.267047,268.340249 L269.962604,268.340249 L269.962604,275.543383 L282.22057,275.543383 L282.22057,285.021192 L269.962604,285.021192 L269.962604,293.55122 L293.530755,293.55122 L293.530755,303.092214 L259.979312,303.092214 Z M315.898383,303.850438 C307.241984,303.850438 300.670704,298.921978 297.953732,290.644692 L306.862872,287.295866 C308.821619,291.466102 312.23363,294.435815 316.151125,294.435815 C320.068619,294.435815 322.65922,292.982551 322.65922,290.139208 C322.65922,287.23268 318.931282,286.095343 314.445119,284.705265 C307.747468,282.556962 299.786108,280.092731 299.786108,270.741293 C299.786108,263.854086 305.472793,258.104215 315.3929,258.104215 C323.607001,258.104215 329.230501,263.032676 330.936506,269.4144 L322.090551,272.320928 C320.826843,269.603956 318.868096,267.518838 314.887417,267.518838 C311.538591,267.518838 309.706215,268.719361 309.706215,270.93085 C309.706215,273.079153 313.05504,274.090119 317.03572,275.417012 C323.796557,277.565316 332.579326,280.345473 332.579326,290.202394 C332.579326,298.858792 325.249821,303.850438 315.898383,303.850438 Z M359.685859,268.466619 L359.685859,303.092214 L349.702567,303.092214 L349.702567,268.466619 L337.002304,268.466619 L337.002304,258.86244 L372.449308,258.86244 L372.449308,268.466619 L359.685859,268.466619 Z" id="CONTEST" fill="#FFFFFF"></path>
            <path d="M104.454047,244.114226 C95.1732279,244.114226 91.6980314,236.387025 91.6980314,229.313978 C91.6980314,222.240931 95.1732279,214.513729 104.454047,214.513729 C113.693981,214.513729 117.128293,222.240931 117.128293,229.313978 C117.128293,236.387025 113.693981,244.114226 104.454047,244.114226 Z M104.454047,237.858873 C108.828706,237.858873 110.423208,233.034482 110.423208,229.313978 C110.423208,225.38905 108.992245,220.728198 104.454047,220.728198 C99.8340797,220.728198 98.4031164,225.593473 98.4031164,229.313978 C98.4031164,233.157136 99.915849,237.858873 104.454047,237.858873 Z M122.034453,243.62361 L122.034453,215.004345 L134.872237,215.004345 C142.272362,215.004345 144.88898,219.665197 144.88898,224.244279 C144.88898,228.537169 142.027054,233.484213 134.872237,233.484213 L128.49423,233.484213 L128.49423,243.62361 L122.034453,243.62361 Z M135.117545,227.392398 C137.325317,227.392398 138.183895,225.757012 138.183895,224.244279 C138.183895,222.895085 137.447971,221.09616 135.117545,221.09616 L128.49423,221.09616 L128.49423,227.392398 L135.117545,227.392398 Z M148.364177,243.62361 L148.364177,215.004345 L169.256241,215.004345 L169.256241,221.137045 L154.823954,221.137045 L154.823954,225.797896 L162.755579,225.797896 L162.755579,231.930596 L154.823954,231.930596 L154.823954,237.450026 L170.073934,237.450026 L170.073934,243.62361 L148.364177,243.62361 Z M198.243468,243.62361 L192.642269,243.62361 L182.053141,228.9869 C181.766948,228.618938 181.112793,227.433283 180.826601,226.779128 C180.949255,227.515052 180.949255,228.4554 180.949255,228.9869 L180.949255,243.62361 L174.571247,243.62361 L174.571247,215.004345 L180.417754,215.004345 L190.761574,229.518401 C191.006882,229.886363 191.701922,231.031133 191.94723,231.644403 C191.86546,231.112903 191.824576,229.886363 191.824576,229.477516 L191.824576,215.004345 L198.243468,215.004345 L198.243468,243.62361 Z M224.082576,244.114226 C219.094647,244.114226 215.374143,241.415838 214.106718,237.736219 L217.45926,236.509679 C218.604031,239.044528 221.016226,240.761684 224.164345,240.761684 C227.598657,240.761684 229.806429,239.085412 229.806429,235.937293 C229.806429,232.625635 226.699195,231.112903 223.346652,229.886363 C219.339955,228.414515 214.965296,226.574705 214.965296,221.586776 C214.965296,217.743617 218.195184,214.513729 223.755499,214.513729 C228.293697,214.513729 231.278277,216.680616 232.136855,219.624312 L228.866082,220.728198 C228.171043,219.133696 226.331233,217.825387 223.510191,217.825387 C220.484726,217.825387 218.644916,219.25635 218.644916,221.586776 C218.644916,224.244279 221.588612,225.429934 224.8185,226.61559 C228.825197,228.128322 233.486049,230.21344 233.486049,235.855524 C233.486049,241.129646 229.479352,244.114226 224.082576,244.114226 Z M251.148224,244.114226 C242.153598,244.114226 239.005479,236.387025 239.005479,229.313978 C239.005479,222.240931 242.153598,214.513729 251.148224,214.513729 C260.183735,214.513729 263.331854,222.240931 263.331854,229.313978 C263.331854,236.387025 260.183735,244.114226 251.148224,244.114226 Z M251.148224,240.761684 C257.444463,240.761684 259.61135,234.465445 259.61135,229.313978 C259.61135,223.712778 257.444463,217.825387 251.148224,217.825387 C244.892871,217.825387 242.685099,224.121625 242.685099,229.313978 C242.685099,234.915177 244.892871,240.761684 251.148224,240.761684 Z M280.135452,244.114226 C274.125406,244.114226 269.873401,241.129646 269.873401,232.870943 L269.873401,215.004345 L273.430367,215.004345 L273.430367,232.870943 C273.430367,239.167182 276.455832,240.761684 280.135452,240.761684 C283.815071,240.761684 286.881421,239.167182 286.881421,232.870943 L286.881421,215.004345 L290.438387,215.004345 L290.438387,232.870943 C290.438387,241.088761 286.268151,244.114226 280.135452,244.114226 Z M298.247358,243.62361 L298.247358,215.004345 L309.531526,215.004345 C316.400149,215.004345 318.567037,219.092811 318.567037,223.140393 C318.567037,226.53382 316.686342,230.131671 311.902836,231.112903 L318.035536,243.62361 L314.028839,243.62361 L308.141447,231.358211 L301.804324,231.358211 L301.804324,243.62361 L298.247358,243.62361 Z M301.804324,228.046553 L309.613295,228.046553 C313.619992,228.046553 314.969186,225.593473 314.969186,223.222163 C314.969186,221.09616 313.824415,218.316003 309.613295,218.316003 L301.804324,218.316003 L301.804324,228.046553 Z M336.147442,244.114226 C327.479894,244.114226 324.29089,236.591448 324.29089,229.313978 C324.29089,222.118277 327.643432,214.513729 336.147442,214.513729 C341.421564,214.513729 344.119952,217.089463 345.387377,219.665197 L342.198373,221.300583 C340.849179,219.297235 339.295562,217.825387 336.147442,217.825387 C330.014743,217.825387 327.970509,224.08074 327.970509,229.313978 C327.970509,234.996946 330.423589,240.761684 336.147442,240.761684 C339.295562,240.761684 341.053602,239.289836 342.361912,237.122949 L345.632685,238.349488 C344.160837,241.538492 341.176256,244.114226 336.147442,244.114226 Z M351.969808,243.62361 L351.969808,215.004345 L368.977828,215.004345 L368.977828,218.356887 L355.526774,218.356887 L355.526774,227.14709 L364.398746,227.14709 L364.398746,230.499633 L355.526774,230.499633 L355.526774,240.230183 L369.877291,240.230183 L369.877291,243.62361 L351.969808,243.62361 Z" id="OPEN-SOURCE" fill="#FFFFFF"></path>
        </g>
        <g id="Logo-RedHat-A-White-RGB" transform="translate(142.000000, 344.000000)" fill="#FFFFFF" fill-rule="nonzero">
            <path d="M37.4300163,24.5158238 C41.1034258,24.5158238 46.4182708,23.7582382 46.4182708,19.388907 C46.4292533,19.0516928 46.3986808,18.714409 46.3272431,18.3846656 L44.1396411,8.88254486 C43.634584,6.79184339 43.1911909,5.84339315 39.5207178,4.00815661 C36.6724307,2.55171289 30.467863,0.146818923 28.6326264,0.146818923 C26.9236542,0.146818923 26.4274062,2.34910277 24.3895595,2.34910277 C22.4280587,2.34910277 20.971615,0.704730832 19.1363785,0.704730832 C17.3745514,0.704730832 16.2264274,1.90570962 15.3396411,4.37520392 C15.3396411,4.37520392 12.8701468,11.3402936 12.5530179,12.3504078 C12.5026131,12.5358983 12.4808286,12.7279981 12.4884176,12.9200653 C12.4884176,15.6274062 23.1474715,24.5040783 37.4300163,24.5040783 M46.9820555,21.1624796 C47.4900489,23.5673736 47.4900489,23.8199021 47.4900489,24.137031 C47.4900489,28.2479608 42.8681892,30.5295269 36.7928222,30.5295269 C23.0623165,30.5383361 11.0349103,22.4926591 11.0349103,17.1748777 C11.0341165,16.4346658 11.1850182,15.7021431 11.4783034,15.0225122 C6.53931485,15.269168 0.146818923,16.1500816 0.146818923,21.793801 C0.146818923,31.0375204 22.0492659,42.4306688 39.3915171,42.4306688 C52.6874388,42.4306688 56.040783,36.4169657 56.040783,31.6688418 C56.040783,27.9337684 52.8107667,23.6936378 46.9879282,21.1624796" id="Shape"></path>
            <path d="M170.233605,27.2495922 C170.233605,30.7409462 172.333116,32.4381729 176.162153,32.4381729 C177.341059,32.408823 178.51262,32.243287 179.653507,31.9448613 L179.653507,27.8955954 C178.924306,28.1266849 178.163292,28.2416298 177.398369,28.2362153 C175.821533,28.2362153 175.237194,27.7429038 175.237194,26.2600326 L175.237194,20.0554649 L179.806199,20.0554649 L179.806199,15.8858075 L175.237194,15.8858075 L175.237194,10.6003263 L170.245351,11.6809135 L170.245351,15.8858075 L166.930179,15.8858075 L166.930179,20.0554649 L170.233605,20.0554649 L170.233605,27.2495922 Z M154.670799,27.3435563 C154.670799,26.262969 155.754323,25.7373573 157.389886,25.7373573 C158.389606,25.7431684 159.385121,25.8673613 160.355628,26.1073409 L160.355628,28.2068515 C159.399217,28.7292411 158.323915,28.9952849 157.234258,28.9791191 C155.630995,28.9791191 154.670799,28.3624796 154.670799,27.3435563 L154.670799,27.3435563 Z M156.197716,32.4998369 C157.959543,32.4998369 159.38075,32.1298532 160.707993,31.2342577 L160.707993,32.2238173 L165.646982,32.2238173 L165.646982,21.7526917 C165.646982,17.7709625 162.963132,15.5862969 158.485155,15.5862969 C155.983361,15.5862969 153.51093,16.1735726 150.850571,17.3774878 L152.641762,21.0538336 C154.556281,20.2492659 156.165416,19.7559543 157.583687,19.7559543 C159.639152,19.7559543 160.702121,20.5575856 160.702121,22.1960848 L160.702121,22.9977162 C159.491955,22.6844559 158.246453,22.5285213 156.996411,22.5337684 C152.794454,22.5337684 150.263295,24.2955954 150.263295,27.4463295 C150.263295,30.3181077 152.547798,32.508646 156.191843,32.508646 L156.197716,32.4998369 Z M129.047961,32.2326264 L134.359869,32.2326264 L134.359869,23.7611746 L143.25416,23.7611746 L143.25416,32.2238173 L148.58075,32.2238173 L148.58075,10.606199 L143.274715,10.606199 L143.274715,18.9132137 L134.380424,18.9132137 L134.380424,10.606199 L129.068515,10.606199 L129.047961,32.2326264 Z M108.828059,24.0401305 C108.828059,21.6910277 110.680914,19.8998369 113.121044,19.8998369 C114.390548,19.8740983 115.623268,20.3269342 116.574225,21.1683524 L116.574225,26.8796085 C115.643657,27.7588457 114.400627,28.2302668 113.121044,28.1892333 C110.713214,28.1892333 108.828059,26.3980424 108.828059,24.051876 L108.828059,24.0401305 Z M116.641762,32.2355628 L121.583687,32.2355628 L121.583687,9.52561175 L116.591843,10.606199 L116.591843,16.7520392 C115.321091,16.0316245 113.882889,15.6589074 112.422186,15.6714519 C107.668189,15.6714519 103.930179,19.3448613 103.930179,24.0401305 C103.902573,26.2655827 104.770403,28.4087824 106.338624,29.988048 C107.906846,31.5673137 110.043903,32.4501616 112.269494,32.4381729 C113.844788,32.445686 115.38111,31.9486708 116.653507,31.0199021 L116.641762,32.2355628 Z M93.9641109,19.6737357 C95.5380098,19.6737357 96.8652529,20.6926591 97.3908646,22.2665579 L90.5784666,22.2665579 C91.0717781,20.6427406 92.3079935,19.6737357 93.9641109,19.6737357 L93.9641109,19.6737357 Z M85.5455139,24.0783034 C85.5455139,28.8352365 89.4362153,32.5409462 94.4368679,32.5409462 C97.1853181,32.5409462 99.193801,31.7980424 101.263948,30.0685155 L97.9575856,27.132137 C97.1853181,27.9367047 96.0430669,28.3683524 94.68646,28.3683524 C92.9402347,28.4175356 91.3437749,27.3870721 90.6694943,25.7755302 L102.312235,25.7755302 L102.312235,24.5334421 C102.312235,19.3448613 98.8238173,15.6097879 94.0668842,15.6097879 C91.8078521,15.575702 89.6305613,16.4542187 88.0277606,18.0465182 C86.4249599,19.6388178 85.5321505,21.8102869 85.5513866,24.0694943 L85.5455139,24.0783034 Z M76.9331158,15.1458401 C78.6949429,15.1458401 79.6815661,16.2557912 79.6815661,17.5859706 C79.6815661,18.9161501 78.6949429,20.0261011 76.9331158,20.0261011 L71.6799347,20.0261011 L71.6799347,15.1458401 L76.9331158,15.1458401 Z M66.3621533,32.2238173 L71.674062,32.2238173 L71.674062,24.3484502 L75.7174551,24.3484502 L79.7960848,32.2238173 L85.7422512,32.2238173 L80.9853181,23.5761827 C83.4585484,22.5703296 85.0718974,20.1619298 85.0610114,17.4920065 C85.0610114,13.6013051 82.0042414,10.606199 77.4264274,10.606199 L66.3621533,10.606199 L66.3621533,32.2238173 Z" id="Shape"></path>
        </g>
    </g>
</svg>